<svg xmlns="http://www.w3.org/2000/svg" xmlns:xlink="http://www.w3.org/1999/xlink" viewBox="0,0,256,256" width="20px" height="20px" fill-rule="nonzero"><g fill="none" fill-rule="nonzero" stroke="none" stroke-width="1" stroke-linecap="butt" stroke-linejoin="miter" stroke-miterlimit="10" stroke-dasharray="" stroke-dashoffset="0" font-family="none" font-weight="none" font-size="none" text-anchor="none" style="mix-blend-mode: normal"><g transform="scale(2.56,2.56)"><path d="M53.48,11.83v0c5.34,4.48 12.09,6.94 19.07,6.94v0c2.63,0 4.88,1.89 5.33,4.48v0c1.21,6.87 4.8,13.09 10.15,17.57v0c2.01,1.69 2.52,4.58 1.21,6.86v0c-3.49,6.04 -4.73,13.11 -3.52,19.98v0c0.46,2.59 -1.01,5.13 -3.48,6.03v0c-6.55,2.39 -12.06,7 -15.54,13.04v0c-1.31,2.28 -4.07,3.28 -6.54,2.38v0c-6.55,-2.39 -13.74,-2.39 -20.29,0v0c-2.47,0.9 -5.23,-0.11 -6.54,-2.38v0c-3.49,-6.04 -8.99,-10.66 -15.54,-13.04v0c-2.47,-0.9 -3.94,-3.44 -3.48,-6.03v0c1.21,-6.87 -0.04,-13.94 -3.52,-19.98v0c-1.31,-2.28 -0.8,-5.17 1.21,-6.86v0c5.34,-4.48 8.93,-10.7 10.15,-17.57v0c0.46,-2.59 2.71,-4.48 5.33,-4.48v0c6.97,0 13.72,-2.46 19.07,-6.94v0c2.01,-1.69 4.95,-1.69 6.96,0z" fill="#f8fb69"></path><circle cx="50" cy="50" r="26.97" fill="#fec933"></circle><path d="M50,63c2.57,0 4.68,-1.94 4.97,-4.43c0.03,-0.3 -0.19,-0.57 -0.49,-0.57c-1.73,0 -7.22,0 -8.95,0c-0.3,0 -0.53,0.27 -0.49,0.57c0.28,2.49 2.4,4.43 4.97,4.43z" fill="#4a254b"></path><path d="M55.5,50.49h-2v-2.39c0,-1.93 -1.57,-3.5 -3.5,-3.5c-1.93,0 -3.5,1.57 -3.5,3.5v2.12h-2v-2.12c0,-3.03 2.46,-5.5 5.5,-5.5c3.04,0 5.5,2.47 5.5,5.5z" fill="#4a254b"></path><path d="M43.24,55.79c-1.74,0.13 -3.48,0.2 -5.23,0.21c-0.79,0 -1.54,-1.6 -1.54,-1.6c0,0 -2.18,1.53 -2.85,1.5c-0.62,-0.03 -1.25,-0.07 -1.87,-0.11c-0.71,-0.06 -1.4,-0.35 -2.01,-0.78c-0.21,-0.16 -0.33,-0.88 -0.33,-0.88c0,0 -0.57,0.03 -0.7,-0.15c-0.4,-0.55 -0.67,-1.19 -0.74,-1.84c-0.26,-2.76 -0.26,-5.52 0,-8.28c0.19,-1.82 1.96,-3.5 3.78,-3.65c1.1,-0.08 2.19,-0.14 3.29,-0.17c0.25,0 0.66,0.41 0.66,0.41c0,0 0.6,-0.44 0.85,-0.44c1.32,-0.02 2.64,0 3.97,0.05c0.9,0.03 2.08,1 2.08,1c0,0 1.63,-0.65 2.09,-0.41c1.21,0.64 2.18,1.89 2.31,3.21c0.26,2.76 0.26,5.52 0,8.28c-0.19,1.82 -1.96,3.5 -3.78,3.65z" fill="#4a254b"></path><path d="M28.72,53.98c0.29,0.39 0.64,0.74 1.03,1.03l6.82,-15c-0.5,0 -1,0.02 -1.5,0.03z" fill="#c9dcf4"></path><path d="M43.24,40.21c-0.9,-0.07 -1.81,-0.11 -2.71,-0.15l-6.92,15.84c1.46,0.07 2.94,0.1 4.4,0.09l6.68,-15.34c-0.46,-0.24 -0.96,-0.41 -1.46,-0.45z" fill="#c9dcf4"></path><path d="M68.24,55.79c-1.74,0.13 -3.48,0.2 -5.23,0.21c-0.79,0 -1.54,-1.6 -1.54,-1.6c0,0 -2.18,1.53 -2.85,1.5c-0.62,-0.03 -1.25,-0.07 -1.87,-0.11c-0.71,-0.06 -1.4,-0.35 -2.01,-0.78c-0.21,-0.16 -0.33,-0.88 -0.33,-0.88c0,0 -0.57,0.03 -0.7,-0.15c-0.4,-0.55 -0.67,-1.19 -0.74,-1.84c-0.26,-2.76 -0.26,-5.52 0,-8.28c0.19,-1.82 1.96,-3.5 3.78,-3.65c1.1,-0.08 2.19,-0.14 3.29,-0.17c0.25,0 0.66,0.41 0.66,0.41c0,0 0.6,-0.44 0.85,-0.44c1.32,-0.02 2.64,0 3.97,0.05c0.9,0.03 2.08,1 2.08,1c0,0 1.63,-0.65 2.09,-0.41c1.21,0.64 2.18,1.89 2.31,3.21c0.26,2.76 0.26,5.52 0,8.28c-0.19,1.82 -1.96,3.5 -3.78,3.65z" fill="#4a254b"></path><path d="M53.72,53.98c0.29,0.39 0.64,0.74 1.03,1.03l6.82,-15c-0.5,0 -1,0.02 -1.5,0.03z" fill="#c9dcf4"></path><path d="M68.24,40.21c-0.9,-0.07 -1.81,-0.11 -2.71,-0.15l-6.92,15.84c1.46,0.07 2.94,0.1 4.4,0.09l6.68,-15.34c-0.46,-0.24 -0.96,-0.41 -1.46,-0.45z" fill="#c9dcf4"></path></g></g></svg>